# xmcd
#
# Track frame offsets: 
#        150
#        11790
#        21263
#        35606
#        48053
#        60615
#        74028
#        89196
#        100886
#        115119
#        124866
#        138870
#
# Disc length: 2017 seconds
#
# Revision: 0
# Processed by: cddbd v1.5.2PL0 Copyright (c) Steve Scherf et al.
# Submitted via: ExactAudioCopy v0.99pb4
#
DISCID=aa07df0c
DTITLE=Various Artist - Ernest Tubb's Special Guests
DYEAR=2004
DGENRE=Country
TTITLE0=Ernest Tubb With Kris Kristofferson - Letters Have No Arms
TTITLE1=Ernest Tubb With Merle Haggard, Charlie Daniels and Chet Atkins 
TTITLE1=/ Walking The Floor Over You
TTITLE2=Ernest Tubb With George Jones - Filipino Baby
TTITLE3=Ernest Tubb With Willie Nelson and Waylon Jennings - You Nearly 
TTITLE3=Lose Your Mind
TTITLE4=Ernest Tubb With Boxcar Willie - Drivin' Nails In My Coffin
TTITLE5=Ernest Tubb With Justin Tubb, Jimmy Crawford and Phil Baugh - Bl
TTITLE5=ue Eyed Elaine
TTITLE6=Ernest Tubb With Roy Clark - I'm With A Crowd But So Alone
TTITLE7=Ernest Tubb With Leon Russell - (When You Feel Like Your In Lo
TTITLE7=ve) Don't Just Stand There
TTITLE8=Ernest Tubb With B.J. Thomas - Tomorrow Never Comes
TTITLE9=Ernest Tubb With Jack Greene - Mr. Juke Box
TTITLE10=Ernest Tubb With Cal Smith - Our Baby's Book
TTITLE11=Ernest Tubb With Conway Twitty and Jerry Kennedy - Jimmy Roger'
TTITLE11=s Last Blues Yodel (The Women Make A Fool Out Of Me)
EXTD=
EXTT0=
EXTT1=
EXTT2=
EXTT3=
EXTT4=
EXTT5=
EXTT6=
EXTT7=
EXTT8=
EXTT9=
EXTT10=
EXTT11=
PLAYORDER=
